<svg width="14" height="21" viewBox="0 0 14 21" fill="none" xmlns="http://www.w3.org/2000/svg">
<path d="M9.75 0H3.75C3.54289 0 3.375 0.167893 3.375 0.375V2.625C3.375 2.83211 3.54289 3 3.75 3H9.75C9.95711 3 10.125 2.83211 10.125 2.625V0.375C10.125 0.167893 9.95711 0 9.75 0Z" fill="black"/>
<path d="M13.5 9H0V17.25H13.5V9ZM9.93203 15.2461L8.87126 16.307C8.80094 16.3773 8.70557 16.4168 8.60614 16.4168C8.5067 16.4168 8.41133 16.3773 8.34101 16.307L6.75 14.7158L5.15899 16.307C5.08866 16.3773 4.9933 16.4168 4.89386 16.4168C4.79443 16.4168 4.69906 16.3773 4.62874 16.307L3.56798 15.2461C3.49766 15.1758 3.45816 15.0804 3.45816 14.981C3.45816 14.8815 3.49766 14.7861 3.56798 14.7158L5.15899 13.125L3.56798 11.5338C3.49767 11.4635 3.45818 11.3681 3.45818 11.2687C3.45818 11.1692 3.49767 11.0739 3.56798 11.0036L4.62874 9.94298C4.69906 9.87267 4.79443 9.83318 4.89386 9.83318C4.9933 9.83318 5.08866 9.87267 5.15899 9.94298L6.75 11.5342L8.34101 9.94298C8.41133 9.87267 8.5067 9.83318 8.60614 9.83318C8.70557 9.83318 8.80094 9.87267 8.87126 9.94298L9.93203 11.0036C10.0023 11.0739 10.0418 11.1692 10.0418 11.2687C10.0418 11.3681 10.0023 11.4635 9.93203 11.5338L8.34101 13.125L9.93203 14.7158C10.0023 14.7861 10.0418 14.8815 10.0418 14.981C10.0418 15.0804 10.0023 15.1758 9.93203 15.2461Z" fill="black"/>
<path d="M7.43562 13.125C7.43562 13.0758 7.44532 13.027 7.46417 12.9815C7.48302 12.936 7.51066 12.8947 7.54549 12.8599L9.13651 11.2688L8.60614 10.7384L7.01502 12.3296C6.94336 12.3973 6.8485 12.4351 6.74989 12.4351C6.65129 12.4351 6.55643 12.3973 6.48477 12.3296L4.89364 10.7384L4.36328 11.2688L5.95429 12.86C5.98913 12.8948 6.01676 12.9361 6.03561 12.9816C6.05446 13.0271 6.06417 13.0758 6.06417 13.1251C6.06417 13.1743 6.05446 13.2231 6.03561 13.2686C6.01676 13.3141 5.98913 13.3554 5.95429 13.3902L4.36328 14.981L4.89364 15.5116L6.48466 13.9204C6.51946 13.8856 6.56079 13.858 6.60629 13.8391C6.65178 13.8203 6.70054 13.8106 6.74978 13.8106C6.79902 13.8106 6.84779 13.8203 6.89328 13.8391C6.93877 13.858 6.9801 13.8856 7.01491 13.9204L8.60614 15.5116L9.13662 14.981L7.54549 13.3901C7.51066 13.3553 7.48302 13.314 7.46417 13.2685C7.44532 13.223 7.43562 13.1743 7.43562 13.125Z" fill="black"/>
<path d="M0 18V18.375C0.000803915 19.0709 0.277624 19.7382 0.769732 20.2303C1.26184 20.7224 1.92905 20.9992 2.625 21H10.875C11.5709 20.9992 12.2382 20.7224 12.7303 20.2303C13.2224 19.7382 13.4992 19.0709 13.5 18.375V18H0Z" fill="black"/>
<path d="M13.5 8.25V8.15588C13.5001 7.54953 13.3369 6.95436 13.0274 6.43295C12.7179 5.91154 12.2736 5.48317 11.7413 5.19289L9.17962 3.79579C9.12452 3.76574 9.06276 3.75 9 3.75H4.5C4.43724 3.75 4.37548 3.76574 4.32037 3.79579L1.75875 5.19289C1.22641 5.48317 0.782123 5.91154 0.472629 6.43295C0.163135 6.95436 -0.000132256 7.54953 8.03852e-08 8.15588V8.25H13.5Z" fill="black"/>
</svg>
