<svg width="20" height="20" viewBox="0 0 20 20" fill="none" xmlns="http://www.w3.org/2000/svg">
<g clip-path="url(#clip0_675_488)">
<path d="M17.4987 0.208496H2.4987C1.23568 0.208496 0.207031 1.23633 0.207031 2.50016V17.5002C0.207031 18.764 1.23568 19.7918 2.4987 19.7918H17.4987C18.7617 19.7918 19.7904 18.764 19.7904 17.5002V2.50016C19.7904 1.23633 18.7617 0.208496 17.4987 0.208496ZM18.5404 17.5002C18.5404 18.0747 18.0732 18.5418 17.4987 18.5418H2.4987C1.92415 18.5418 1.45703 18.0747 1.45703 17.5002V2.50016C1.45703 1.92562 1.92415 1.4585 2.4987 1.4585H17.4987C18.0732 1.4585 18.5404 1.92562 18.5404 2.50016V17.5002Z" fill="white"/>
<path d="M4.16406 6.875H8.33073C8.67578 6.875 8.95573 6.59505 8.95573 6.25C8.95573 5.90495 8.67578 5.625 8.33073 5.625H4.16406C3.81901 5.625 3.53906 5.90495 3.53906 6.25C3.53906 6.59505 3.81901 6.875 4.16406 6.875Z" fill="white"/>
<path d="M8.84009 11.1582C8.59595 10.9141 8.19881 10.9141 7.95467 11.1582L6.24731 12.8656L4.53996 11.1582C4.29582 10.9141 3.89868 10.9141 3.65454 11.1582C3.41203 11.4023 3.41203 11.7979 3.65454 12.042L5.36271 13.7502L3.65454 15.4583C3.41203 15.7025 3.41203 16.098 3.65454 16.3421C3.77661 16.4642 3.93774 16.5252 4.09725 16.5252C4.25675 16.5252 4.41789 16.4642 4.53996 16.3421L6.24731 14.6348L7.95467 16.3421C8.07674 16.4642 8.23787 16.5252 8.39738 16.5252C8.55688 16.5252 8.71802 16.4642 8.84009 16.3421C9.0826 16.098 9.0826 15.7025 8.84009 15.4583L7.13192 13.7502L8.84009 12.042C9.0826 11.7979 9.0826 11.4023 8.84009 11.1582Z" fill="white"/>
<path d="M15.8307 11.4585H11.6641C11.319 11.4585 11.0391 11.7384 11.0391 12.0835C11.0391 12.4285 11.319 12.7085 11.6641 12.7085H15.8307C16.1758 12.7085 16.4557 12.4285 16.4557 12.0835C16.4557 11.7384 16.1758 11.4585 15.8307 11.4585Z" fill="white"/>
<path d="M15.8307 14.792H11.6641C11.319 14.792 11.0391 15.0719 11.0391 15.417C11.0391 15.762 11.319 16.042 11.6641 16.042H15.8307C16.1758 16.042 16.4557 15.762 16.4557 15.417C16.4557 15.0719 16.1758 14.792 15.8307 14.792Z" fill="white"/>
<path d="M15.8307 5.62533H14.3724V4.16699C14.3724 3.82194 14.0924 3.54199 13.7474 3.54199C13.4023 3.54199 13.1224 3.82194 13.1224 4.16699V5.62533H11.6641C11.319 5.62533 11.0391 5.90527 11.0391 6.25033C11.0391 6.59538 11.319 6.87533 11.6641 6.87533H13.1224V8.33366C13.1224 8.67871 13.4023 8.95866 13.7474 8.95866C14.0924 8.95866 14.3724 8.67871 14.3724 8.33366V6.87533H15.8307C16.1758 6.87533 16.4557 6.59538 16.4557 6.25033C16.4557 5.90527 16.1758 5.62533 15.8307 5.62533Z" fill="white"/>
</g>
<defs>
<clipPath id="clip0_675_488">
<rect width="20" height="20" fill="white"/>
</clipPath>
</defs>
</svg>
