<svg width="20" height="20" viewBox="0 0 20 20" fill="none" xmlns="http://www.w3.org/2000/svg">
<path d="M13.3342 4.99935C13.3342 6.8403 11.8418 8.33268 10.0008 8.33268C8.1599 8.33268 6.66752 6.8403 6.66752 4.99935C6.66752 3.1584 8.1599 1.66602 10.0008 1.66602C11.8418 1.66602 13.3342 3.1584 13.3342 4.99935Z" fill="white"/>
<path d="M15.8342 18.3327C16.7547 18.3327 17.5193 17.5775 17.3164 16.6797C17.0065 15.3081 16.3143 14.0395 15.3042 13.0294C13.8976 11.6229 11.99 10.8327 10.0009 10.8327C8.01173 10.8327 6.10407 11.6229 4.69755 13.0294C3.68744 14.0395 2.99521 15.3081 2.68526 16.6797C2.48236 17.5775 3.24704 18.3327 4.16752 18.3327H15.8342Z" fill="white"/>
<path d="M13.3342 4.99935C13.3342 6.8403 11.8418 8.33268 10.0008 8.33268C8.1599 8.33268 6.66752 6.8403 6.66752 4.99935C6.66752 3.1584 8.1599 1.66602 10.0008 1.66602C11.8418 1.66602 13.3342 3.1584 13.3342 4.99935Z" stroke="white" stroke-width="1.25"/>
<path d="M15.8342 18.3327C16.7547 18.3327 17.5193 17.5775 17.3164 16.6797C17.0065 15.3081 16.3143 14.0395 15.3042 13.0294C13.8976 11.6229 11.99 10.8327 10.0009 10.8327C8.01173 10.8327 6.10407 11.6229 4.69755 13.0294C3.68744 14.0395 2.99521 15.3081 2.68526 16.6797C2.48236 17.5775 3.24704 18.3327 4.16752 18.3327H15.8342Z" stroke="white" stroke-width="1.25"/>
</svg>
