<svg width="20" height="16" viewBox="0 0 20 16" fill="none" xmlns="http://www.w3.org/2000/svg">
<path fill-rule="evenodd" clip-rule="evenodd" d="M1.37446 6.8879C6.74136 4.62992 10.3202 3.1413 12.1108 2.42214C17.2235 0.368665 18.2859 0.0119292 18.9783 0.000123596C19.1306 -0.00244585 19.4711 0.0340128 19.6916 0.20686C20.0189 0.463249 20.0207 1.01978 19.9844 1.38811C19.7073 4.19922 18.5085 11.021 17.8986 14.1694C17.6405 15.5017 17.1324 15.9484 16.6405 15.9921C15.5714 16.0871 14.7595 15.3098 13.724 14.6544C12.1037 13.6287 11.1883 12.9902 9.61549 11.9894C7.79786 10.8327 8.97617 10.197 10.012 9.15804C10.2831 8.88617 14.9936 4.74874 15.0848 4.37339C15.0962 4.32644 15.1068 4.15144 14.9992 4.05908C14.8915 3.96672 14.7326 3.99825 14.618 4.02339C14.4555 4.05901 11.867 5.71117 6.85254 8.97978C6.11779 9.467 5.45229 9.70436 4.85605 9.69193C4.19868 9.67825 2.93428 9.33304 1.99429 9.03797C0.841356 8.6761 -0.0749776 8.48471 0.00484746 7.87012C0.046414 7.54992 0.502927 7.22256 1.37446 6.8879Z" fill="white"/>
</svg>
