<svg width="18" height="22" viewBox="0 0 18 22" fill="none" xmlns="http://www.w3.org/2000/svg">
<path fill-rule="evenodd" clip-rule="evenodd" d="M8.72474 5C6.65368 5 4.97474 6.67893 4.97474 8.75C4.97474 10.8211 6.65368 12.5 8.72474 12.5C10.7958 12.5 12.4747 10.8211 12.4747 8.75C12.4747 6.67893 10.7958 5 8.72474 5ZM6.47474 8.75C6.47474 7.50736 7.4821 6.5 8.72474 6.5C9.96739 6.5 10.9747 7.50736 10.9747 8.75C10.9747 9.99264 9.96739 11 8.72474 11C7.4821 11 6.47474 9.99264 6.47474 8.75Z" fill="#192189"/>
<path fill-rule="evenodd" clip-rule="evenodd" d="M8.67342 0C5.63283 0 2.65502 1.77761 1.10516 4.43461C-0.474543 7.14277 -0.550453 10.7224 2.13018 14.2073C5.14467 18.1262 6.88679 20.0267 7.67159 20.8239C8.2063 21.3671 9.0733 21.4616 9.68905 20.8849C10.4398 20.1818 12.0508 18.4558 15.3191 14.2073C18.003 10.7184 17.8972 7.1359 16.2901 4.42955C14.7142 1.77578 11.7124 0 8.67342 0ZM3.31913 13.2927C0.999854 10.2776 1.1369 7.35723 2.40084 5.19039C3.69463 2.97239 6.19115 1.5 8.67342 1.5C11.1573 1.5 13.6813 2.97422 15.0003 5.19545C16.2882 7.3641 16.4466 10.2816 14.1302 13.2927C10.9535 17.4222 9.39925 19.0912 8.71299 19.7436C7.96808 18.9838 6.27148 17.1308 3.31913 13.2927Z" fill="#192189"/>
</svg>
